<svg width="40" height="40" viewBox="0 0 40 40" fill="none" xmlns="http://www.w3.org/2000/svg">
<path fill-rule="evenodd" clip-rule="evenodd" d="M20 36C28.8366 36 36 28.8366 36 20C36 11.1634 28.8366 4 20 4C11.1634 4 4 11.1634 4 20C4 28.8366 11.1634 36 20 36ZM27.39 16.9598C27.9367 16.4131 27.9367 15.5267 27.39 14.9799C26.8432 14.4332 25.9568 14.4332 25.4101 14.9799L18.0528 22.3372L14.5908 18.8753C14.0441 18.3286 13.1577 18.3286 12.6109 18.8753C12.0642 19.4221 12.0642 20.3085 12.6109 20.8552L17.0628 25.3071C17.6095 25.8538 18.496 25.8538 19.0427 25.3071L27.39 16.9598Z" fill="white"/>
</svg>
