<svg width="110" height="110" viewBox="0 0 110 110" fill="none" xmlns="http://www.w3.org/2000/svg">
<rect width="110" height="110" fill="#AEB5BD"/>
<path d="M72 39.717L70.283 38L38 70.283L39.717 72L42.1456 69.5714H67.1429C67.7867 69.5705 68.4038 69.3143 68.8591 68.8591C69.3143 68.4038 69.5705 67.7867 69.5714 67.1429V42.1456L72 39.717ZM67.1429 67.1429H44.5741L54.0371 57.6799L56.9259 60.5687C57.3813 61.024 57.9989 61.2798 58.6429 61.2798C59.2868 61.2798 59.9044 61.024 60.3599 60.5687L62.2857 58.6429L67.1429 63.4964V67.1429ZM67.1429 60.0611L64.0027 56.921C63.5473 56.4657 62.9297 56.2099 62.2857 56.2099C61.6417 56.2099 61.0241 56.4657 60.5687 56.921L58.6429 58.8469L55.7565 55.9605L67.1429 44.5741V60.0611ZM42.8571 62.2857V58.6429L48.9286 52.5751L50.5958 54.2435L52.3152 52.5241L50.6456 50.8544C50.1901 50.3991 49.5725 50.1434 48.9286 50.1434C48.2846 50.1434 47.667 50.3991 47.2116 50.8544L42.8571 55.2089V42.8571H62.2857V40.4286H42.8571C42.213 40.4286 41.5953 40.6844 41.1399 41.1399C40.6844 41.5953 40.4286 42.213 40.4286 42.8571V62.2857H42.8571Z" fill="#5E646C"/>
</svg>
