<svg width="40" height="40" viewBox="0 0 40 40" fill="none" xmlns="http://www.w3.org/2000/svg">
<path d="M20.0011 4C21.6385 4 23.1542 4.8379 24.0217 6.18561L24.1866 6.46223L35.5506 26.1633L35.6499 26.366C35.9338 27.0714 36.0476 27.8344 35.982 28.5925C35.9164 29.3506 35.6732 30.0824 35.2724 30.728C34.8716 31.3737 34.3245 31.9149 33.6757 32.3076C33.027 32.7002 32.295 32.933 31.5396 32.9871L31.2211 33H8.81315L8.73472 32.9952L8.55546 32.9984C7.84257 32.9615 7.14683 32.7654 6.51887 32.4243C5.89091 32.0833 5.34654 31.6058 4.92537 31.0267L4.75091 30.7694C4.36972 30.1676 4.12608 29.4884 4.03751 28.7806C3.94895 28.0729 4.01767 27.3542 4.23873 26.6764L4.35397 26.3644L4.45 26.1633L15.8012 6.48957C16.2164 5.73535 16.8251 5.10664 17.5639 4.66882C18.3028 4.231 19.1449 4.00006 20.0027 4H20.0011ZM20.0331 23.3505L19.8299 23.3617C19.4408 23.4082 19.0823 23.5965 18.8222 23.8908C18.562 24.1851 18.4183 24.5651 18.4183 24.9587C18.4183 25.3524 18.562 25.7324 18.8222 26.0267C19.0823 26.321 19.4408 26.5092 19.8299 26.5557L20.0171 26.567L20.2204 26.5557C20.6094 26.5092 20.9679 26.321 21.2281 26.0267C21.4882 25.7324 21.6319 25.3524 21.6319 24.9587C21.6319 24.5651 21.4882 24.1851 21.2281 23.8908C20.9679 23.5965 20.6094 23.4082 20.2204 23.3617L20.0331 23.3505ZM20.0171 13.701C19.6251 13.701 19.2467 13.8456 18.9537 14.1074C18.6608 14.3692 18.4736 14.7299 18.4278 15.1211L18.4166 15.3092L18.4166 19.8935L18.4278 20.0817C18.474 20.4726 18.6614 20.8328 18.9543 21.0942C19.2472 21.3556 19.6254 21.5 20.0171 21.5C20.4089 21.5 20.787 21.3556 21.08 21.0942C21.3729 20.8328 21.5602 20.4726 21.6065 20.0817L21.6177 19.8935L21.6177 15.3092L21.6065 15.1211C21.5606 14.7299 21.3735 14.3692 21.0805 14.1074C20.7875 13.8456 20.4092 13.701 20.0171 13.701Z" fill="white"/>
</svg>
