<svg xmlns="http://www.w3.org/2000/svg">
    <defs>
        <svg id="git" width="100%" height="100%" viewBox="0 0 24 24" fill="none"
            xmlns="http://www.w3.org/2000/svg">
            <path
                d="M12 2C10.6868 2 9.38642 2.25866 8.17317 2.7612C6.95991 3.26375 5.85752 4.00035 4.92893 4.92893C3.05357 6.8043 2 9.34784 2 12C2 16.42 4.87 20.17 8.84 21.5C9.34 21.58 9.5 21.27 9.5 21V19.31C6.73 19.91 6.14 17.97 6.14 17.97C5.68 16.81 5.03 16.5 5.03 16.5C4.12 15.88 5.1 15.9 5.1 15.9C6.1 15.97 6.63 16.93 6.63 16.93C7.5 18.45 8.97 18 9.54 17.76C9.63 17.11 9.89 16.67 10.17 16.42C7.95 16.17 5.62 15.31 5.62 11.5C5.62 10.39 6 9.5 6.65 8.79C6.55 8.54 6.2 7.5 6.75 6.15C6.75 6.15 7.59 5.88 9.5 7.17C10.29 6.95 11.15 6.84 12 6.84C12.85 6.84 13.71 6.95 14.5 7.17C16.41 5.88 17.25 6.15 17.25 6.15C17.8 7.5 17.45 8.54 17.35 8.79C18 9.5 18.38 10.39 18.38 11.5C18.38 15.32 16.04 16.16 13.81 16.41C14.17 16.72 14.5 17.33 14.5 18.26V21C14.5 21.27 14.66 21.59 15.17 21.5C19.14 20.16 22 16.42 22 12C22 10.6868 21.7413 9.38642 21.2388 8.17317C20.7362 6.95991 19.9997 5.85752 19.0711 4.92893C18.1425 4.00035 17.0401 3.26375 15.8268 2.7612C14.6136 2.25866 13.3132 2 12 2Z"
                fill="currentColor" />
        </svg>
        <svg id="mail" width="100%" height="100%" viewBox="0 0 24 24" fill="none"
            xmlns="http://www.w3.org/2000/svg">
            <path fill-rule="evenodd" clip-rule="evenodd"
                d="M9.172 13.834L12.002 15.769L14.73 13.887L20.845 19.92C20.6837 19.9727 20.513 19.9993 20.333 20H3.667C3.447 20 3.237 19.957 3.044 19.88L9.172 13.834ZM22 8.876V18.333C22 18.58 21.946 18.814 21.85 19.025L15.856 13.111L22 8.876ZM2 8.929L8.042 13.061L2.106 18.919C2.03646 18.7314 2.00058 18.533 2 18.333L2 8.929ZM20.333 5C21.253 5 22 5.746 22 6.667V7.253L11.998 14.148L2 7.31V6.667C2 5.747 2.746 5 3.667 5H20.333Z"
                fill="currentColor" />
        </svg>


    </defs>
</svg>